<?xml version="1.0" encoding="utf-8"?>
<!-- Generator: Adobe Illustrator 28.3.0, SVG Export Plug-In . SVG Version: 6.00 Build 0)  -->
<svg version="1.1" id="Layer_1" xmlns="http://www.w3.org/2000/svg" xmlns:xlink="http://www.w3.org/1999/xlink" x="0px" y="0px"
	 viewBox="0 0 402.39 307.2" style="enable-background:new 0 0 402.39 307.2;" xml:space="preserve">
<style type="text/css">
	.st0{fill:none;stroke:#000000;stroke-miterlimit:10;}
	.st1{font-family:'MyriadPro-Regular';}
	.st2{font-size:14px;}
	.st3{fill:#2E3192;}
	.st4{font-size:10px;}
	.st5{fill:#2B3990;}
	.st6{fill:#EF4136;}
</style>
<rect x="14.82" y="133.01" class="st0" width="73.86" height="38.64"/>
<text transform="matrix(1 0 0 1 37.5256 148.8968)"><tspan x="0" y="0" class="st1 st2">Walk</tspan><tspan x="-4.52" y="16.8" class="st3 st1 st2"> </tspan><tspan x="-1.55" y="16.8" class="st3 st1 st4">[1.0, 1.0]</tspan></text>
<rect x="324.45" y="59.74" class="st0" width="73.86" height="38.64"/>
<text transform="matrix(1 0 0 1 330.8681 78.0287)"><tspan x="0" y="0" class="st1 st2">Turn Right</tspan><tspan x="11.71" y="12" class="st5 st1 st4">[1.0, -0.2]</tspan></text>
<rect x="324.45" y="208.47" class="st0" width="73.86" height="38.64"/>
<text transform="matrix(1 0 0 1 335.2153 226.7588)"><tspan x="0" y="0" class="st1 st2">Turn Left</tspan><tspan x="7.37" y="12" class="st5 st1 st4">[-0.2, 1.0]</tspan></text>
<line class="st0" x1="88.69" y1="152.09" x2="361.38" y2="153.11"/>
<line class="st0" x1="361.38" y1="103.35" x2="361.38" y2="153.11"/>
<line class="st0" x1="361.38" y1="152.79" x2="361.38" y2="202.55"/>
<polygon points="361.38,100.35 358.78,104.85 363.98,104.85 "/>
<polygon points="361.38,207.13 363.98,202.63 358.78,202.63 "/>
<text transform="matrix(1 0 0 1 231.076 145.6937)" class="st6 st1 st4">p</text>
<text transform="matrix(0.583 0 0 0.583 236.7659 149.0238)" class="st6 st1 st4">turn</text>
<g>
	<path class="st0" d="M377.49,53.86c2.44-3.31,3.89-7.39,3.89-11.82c0-11.05-8.95-20-20-20s-20,8.95-20,20
		c0,4.43,1.46,8.51,3.89,11.82"/>
	<polygon points="374.51,56.37 379.53,55.02 375.86,51.35 	"/>
</g>
<g>
	<path class="st0" d="M377.49,254.1c2.44,3.31,3.89,7.39,3.89,11.82c0,11.05-8.95,20-20,20s-20-8.95-20-20
		c0-4.43,1.46-8.51,3.89-11.82"/>
	<polygon points="374.51,251.59 379.53,252.94 375.86,256.61 	"/>
</g>
<line class="st0" x1="90.92" y1="172.76" x2="324.45" y2="227.79"/>
<line class="st0" x1="90.93" y1="131.89" x2="324.65" y2="77.03"/>
<text transform="matrix(1 0 0 1 335.3326 15.9868)" class="st6 st1 st4">t &lt; turn</text>
<text transform="matrix(0.583 0 0 0.583 366.482 19.3168)" class="st6 st1 st4">duration</text>
<text transform="matrix(1 0 0 1 364.9295 128.2304)" class="st6 st1 st4">p</text>
<text transform="matrix(0.583 0 0 0.583 370.619 131.5604)" class="st6 st1 st4">Rside</text>
<text transform="matrix(1 0 0 1 335.3318 295.5158)" class="st6 st1 st4">t &lt; turn</text>
<text transform="matrix(0.583 0 0 0.583 366.4813 298.8459)" class="st6 st1 st4">duration</text>
<polygon points="90.02,172.31 95.14,171.42 93.35,176.3 "/>
<polygon points="89.71,132.55 94.83,133.44 93.04,128.56 "/>
<text transform="matrix(1 0 0 1 367.4712 181.3666)" class="st6 st1 st4">p</text>
<text transform="matrix(0.583 0 0 0.583 373.1606 184.6967)" class="st6 st1 st4">Lside</text>
</svg>
